<mxfile host="app.diagrams.net" agent="Mozilla/5.0 (X11; Linux x86_64) AppleWebKit/537.36 (KHTML, like Gecko) Chrome/136.0.0.0 Safari/537.36" version="26.2.14">
  <diagram name="Page-1" id="2YBvvXClWsGukQMizWep">
    <mxGraphModel dx="1254" dy="1237" grid="0" gridSize="10" guides="1" tooltips="1" connect="1" arrows="1" fold="1" page="0" pageScale="1" pageWidth="850" pageHeight="1100" background="none" math="0" shadow="0">
      <root>
        <mxCell id="0" />
        <mxCell id="1" parent="0" />
        <mxCell id="fQcYbc_jI2bmJIxMiMPl-1" value="Driver" style="shape=umlActor;verticalLabelPosition=bottom;verticalAlign=top;html=1;" vertex="1" parent="1">
          <mxGeometry x="398" y="35" width="30" height="60" as="geometry" />
        </mxCell>
        <mxCell id="fQcYbc_jI2bmJIxMiMPl-3" value="" style="endArrow=none;dashed=1;html=1;rounded=0;" edge="1" parent="1">
          <mxGeometry width="50" height="50" relative="1" as="geometry">
            <mxPoint x="412" y="903" as="sourcePoint" />
            <mxPoint x="412.41" y="123" as="targetPoint" />
          </mxGeometry>
        </mxCell>
        <mxCell id="fQcYbc_jI2bmJIxMiMPl-6" value=": Ride Page" style="html=1;whiteSpace=wrap;" vertex="1" parent="1">
          <mxGeometry x="494" y="53" width="91" height="42" as="geometry" />
        </mxCell>
        <mxCell id="fQcYbc_jI2bmJIxMiMPl-8" value=": Pickup Details Form" style="html=1;whiteSpace=wrap;" vertex="1" parent="1">
          <mxGeometry x="658" y="78" width="91" height="42" as="geometry" />
        </mxCell>
        <mxCell id="fQcYbc_jI2bmJIxMiMPl-9" value=": Pickup Request" style="html=1;whiteSpace=wrap;" vertex="1" parent="1">
          <mxGeometry x="821" y="78" width="91" height="42" as="geometry" />
        </mxCell>
        <mxCell id="fQcYbc_jI2bmJIxMiMPl-10" value=":&amp;nbsp;&lt;span style=&quot;background-color: transparent; color: light-dark(rgb(0, 0, 0), rgb(255, 255, 255));&quot;&gt;Message&lt;/span&gt;" style="html=1;whiteSpace=wrap;" vertex="1" parent="1">
          <mxGeometry x="996.5" y="241" width="91" height="42" as="geometry" />
        </mxCell>
        <mxCell id="fQcYbc_jI2bmJIxMiMPl-12" value="DB Manager" style="html=1;whiteSpace=wrap;" vertex="1" parent="1">
          <mxGeometry x="1329" y="71" width="91" height="42" as="geometry" />
        </mxCell>
        <mxCell id="fQcYbc_jI2bmJIxMiMPl-14" value="" style="endArrow=none;dashed=1;html=1;rounded=0;entryX=0.5;entryY=1;entryDx=0;entryDy=0;" edge="1" parent="1" source="fQcYbc_jI2bmJIxMiMPl-39" target="fQcYbc_jI2bmJIxMiMPl-6">
          <mxGeometry width="50" height="50" relative="1" as="geometry">
            <mxPoint x="538.91" y="901" as="sourcePoint" />
            <mxPoint x="539.32" y="121" as="targetPoint" />
          </mxGeometry>
        </mxCell>
        <mxCell id="fQcYbc_jI2bmJIxMiMPl-15" value="" style="endArrow=none;dashed=1;html=1;rounded=0;" edge="1" parent="1" source="fQcYbc_jI2bmJIxMiMPl-23">
          <mxGeometry width="50" height="50" relative="1" as="geometry">
            <mxPoint x="705" y="902" as="sourcePoint" />
            <mxPoint x="705.4100000000001" y="122" as="targetPoint" />
          </mxGeometry>
        </mxCell>
        <mxCell id="fQcYbc_jI2bmJIxMiMPl-16" value="" style="endArrow=none;dashed=1;html=1;rounded=0;" edge="1" parent="1" source="fQcYbc_jI2bmJIxMiMPl-43">
          <mxGeometry width="50" height="50" relative="1" as="geometry">
            <mxPoint x="865.91" y="897" as="sourcePoint" />
            <mxPoint x="866.32" y="117" as="targetPoint" />
          </mxGeometry>
        </mxCell>
        <mxCell id="fQcYbc_jI2bmJIxMiMPl-17" value="" style="endArrow=none;dashed=1;html=1;rounded=0;entryX=0.5;entryY=1;entryDx=0;entryDy=0;" edge="1" parent="1" source="fQcYbc_jI2bmJIxMiMPl-33" target="fQcYbc_jI2bmJIxMiMPl-10">
          <mxGeometry width="50" height="50" relative="1" as="geometry">
            <mxPoint x="1042.9099999999999" y="908" as="sourcePoint" />
            <mxPoint x="1046" y="294" as="targetPoint" />
          </mxGeometry>
        </mxCell>
        <mxCell id="fQcYbc_jI2bmJIxMiMPl-19" value="" style="endArrow=none;dashed=1;html=1;rounded=0;" edge="1" parent="1" source="fQcYbc_jI2bmJIxMiMPl-46">
          <mxGeometry width="50" height="50" relative="1" as="geometry">
            <mxPoint x="1376.9099999999999" y="896" as="sourcePoint" />
            <mxPoint x="1377.3200000000002" y="116" as="targetPoint" />
          </mxGeometry>
        </mxCell>
        <mxCell id="fQcYbc_jI2bmJIxMiMPl-21" value="startArrangePickup()" style="html=1;verticalAlign=bottom;endArrow=block;curved=0;rounded=0;" edge="1" parent="1">
          <mxGeometry width="80" relative="1" as="geometry">
            <mxPoint x="413" y="139" as="sourcePoint" />
            <mxPoint x="529" y="139" as="targetPoint" />
          </mxGeometry>
        </mxCell>
        <mxCell id="fQcYbc_jI2bmJIxMiMPl-22" value="displayForm()" style="html=1;verticalAlign=bottom;endArrow=open;dashed=1;endSize=8;curved=0;rounded=0;" edge="1" parent="1">
          <mxGeometry relative="1" as="geometry">
            <mxPoint x="702" y="197" as="sourcePoint" />
            <mxPoint x="415" y="197" as="targetPoint" />
            <Array as="points">
              <mxPoint x="661" y="197" />
            </Array>
          </mxGeometry>
        </mxCell>
        <mxCell id="fQcYbc_jI2bmJIxMiMPl-24" value="" style="endArrow=none;dashed=1;html=1;rounded=0;" edge="1" parent="1" source="fQcYbc_jI2bmJIxMiMPl-36" target="fQcYbc_jI2bmJIxMiMPl-23">
          <mxGeometry width="50" height="50" relative="1" as="geometry">
            <mxPoint x="705" y="902" as="sourcePoint" />
            <mxPoint x="705.4100000000001" y="122" as="targetPoint" />
          </mxGeometry>
        </mxCell>
        <mxCell id="fQcYbc_jI2bmJIxMiMPl-23" value="" style="html=1;points=[[0,0,0,0,5],[0,1,0,0,-5],[1,0,0,0,5],[1,1,0,0,-5]];perimeter=orthogonalPerimeter;outlineConnect=0;targetShapes=umlLifeline;portConstraint=eastwest;newEdgeStyle={&quot;curved&quot;:0,&quot;rounded&quot;:0};" vertex="1" parent="1">
          <mxGeometry x="700" y="142" width="10" height="63" as="geometry" />
        </mxCell>
        <mxCell id="fQcYbc_jI2bmJIxMiMPl-28" value="cancel()" style="html=1;verticalAlign=bottom;endArrow=block;curved=0;rounded=0;" edge="1" parent="1">
          <mxGeometry width="80" relative="1" as="geometry">
            <mxPoint x="411" y="250" as="sourcePoint" />
            <mxPoint x="699" y="250" as="targetPoint" />
          </mxGeometry>
        </mxCell>
        <mxCell id="fQcYbc_jI2bmJIxMiMPl-29" value="returnToRidePage()" style="html=1;verticalAlign=bottom;endArrow=open;dashed=1;endSize=8;curved=0;rounded=0;" edge="1" parent="1">
          <mxGeometry relative="1" as="geometry">
            <mxPoint x="700" y="280" as="sourcePoint" />
            <mxPoint x="540" y="280" as="targetPoint" />
            <Array as="points">
              <mxPoint x="659" y="280" />
            </Array>
          </mxGeometry>
        </mxCell>
        <mxCell id="fQcYbc_jI2bmJIxMiMPl-30" value="" style="html=1;points=[[0,0,0,0,5],[0,1,0,0,-5],[1,0,0,0,5],[1,1,0,0,-5]];perimeter=orthogonalPerimeter;outlineConnect=0;targetShapes=umlLifeline;portConstraint=eastwest;newEdgeStyle={&quot;curved&quot;:0,&quot;rounded&quot;:0};" vertex="1" parent="1">
          <mxGeometry x="700" y="241" width="10" height="50" as="geometry" />
        </mxCell>
        <mxCell id="fQcYbc_jI2bmJIxMiMPl-31" value="FillDetails()" style="html=1;verticalAlign=bottom;endArrow=block;curved=0;rounded=0;" edge="1" parent="1" source="fQcYbc_jI2bmJIxMiMPl-36">
          <mxGeometry x="0.0476" y="-107" width="80" relative="1" as="geometry">
            <mxPoint x="415" y="394" as="sourcePoint" />
            <mxPoint x="703" y="394" as="targetPoint" />
            <mxPoint as="offset" />
          </mxGeometry>
        </mxCell>
        <mxCell id="fQcYbc_jI2bmJIxMiMPl-32" value="Create" style="endArrow=open;endSize=12;dashed=1;html=1;rounded=0;" edge="1" parent="1">
          <mxGeometry width="160" relative="1" as="geometry">
            <mxPoint x="712" y="262" as="sourcePoint" />
            <mxPoint x="991" y="262" as="targetPoint" />
          </mxGeometry>
        </mxCell>
        <mxCell id="fQcYbc_jI2bmJIxMiMPl-34" value="" style="endArrow=none;dashed=1;html=1;rounded=0;" edge="1" parent="1" source="fQcYbc_jI2bmJIxMiMPl-54" target="fQcYbc_jI2bmJIxMiMPl-33">
          <mxGeometry width="50" height="50" relative="1" as="geometry">
            <mxPoint x="1042.9099999999999" y="908" as="sourcePoint" />
            <mxPoint x="1046" y="294" as="targetPoint" />
          </mxGeometry>
        </mxCell>
        <mxCell id="fQcYbc_jI2bmJIxMiMPl-33" value="" style="html=1;points=[[0,0,0,0,5],[0,1,0,0,-5],[1,0,0,0,5],[1,1,0,0,-5]];perimeter=orthogonalPerimeter;outlineConnect=0;targetShapes=umlLifeline;portConstraint=eastwest;newEdgeStyle={&quot;curved&quot;:0,&quot;rounded&quot;:0};" vertex="1" parent="1">
          <mxGeometry x="1037" y="302" width="10" height="22" as="geometry" />
        </mxCell>
        <mxCell id="fQcYbc_jI2bmJIxMiMPl-35" value="displayMessage(&quot;Pickup arrangement cancelled&quot;)" style="html=1;verticalAlign=bottom;endArrow=open;dashed=1;endSize=8;curved=0;rounded=0;" edge="1" parent="1">
          <mxGeometry x="0.0011" relative="1" as="geometry">
            <mxPoint x="1031" y="311" as="sourcePoint" />
            <mxPoint x="415" y="311" as="targetPoint" />
            <Array as="points">
              <mxPoint x="999" y="311.40999999999997" />
            </Array>
            <mxPoint as="offset" />
          </mxGeometry>
        </mxCell>
        <mxCell id="fQcYbc_jI2bmJIxMiMPl-37" value="" style="endArrow=none;dashed=1;html=1;rounded=0;" edge="1" parent="1" target="fQcYbc_jI2bmJIxMiMPl-36">
          <mxGeometry width="50" height="50" relative="1" as="geometry">
            <mxPoint x="705" y="902" as="sourcePoint" />
            <mxPoint x="705" y="205" as="targetPoint" />
          </mxGeometry>
        </mxCell>
        <mxCell id="fQcYbc_jI2bmJIxMiMPl-38" value="" style="html=1;verticalAlign=bottom;endArrow=block;curved=0;rounded=0;" edge="1" parent="1">
          <mxGeometry width="80" relative="1" as="geometry">
            <mxPoint x="414" y="389" as="sourcePoint" />
            <mxPoint x="692" y="389" as="targetPoint" />
          </mxGeometry>
        </mxCell>
        <mxCell id="fQcYbc_jI2bmJIxMiMPl-36" value="" style="html=1;points=[[0,0,0,0,5],[0,1,0,0,-5],[1,0,0,0,5],[1,1,0,0,-5]];perimeter=orthogonalPerimeter;outlineConnect=0;targetShapes=umlLifeline;portConstraint=eastwest;newEdgeStyle={&quot;curved&quot;:0,&quot;rounded&quot;:0};" vertex="1" parent="1">
          <mxGeometry x="700" y="381" width="10" height="40" as="geometry" />
        </mxCell>
        <mxCell id="fQcYbc_jI2bmJIxMiMPl-40" value="" style="endArrow=none;dashed=1;html=1;rounded=0;" edge="1" parent="1" target="fQcYbc_jI2bmJIxMiMPl-39">
          <mxGeometry width="50" height="50" relative="1" as="geometry">
            <mxPoint x="538.91" y="901" as="sourcePoint" />
            <mxPoint x="539.32" y="121" as="targetPoint" />
          </mxGeometry>
        </mxCell>
        <mxCell id="fQcYbc_jI2bmJIxMiMPl-39" value="" style="html=1;points=[[0,0,0,0,5],[0,1,0,0,-5],[1,0,0,0,5],[1,1,0,0,-5]];perimeter=orthogonalPerimeter;outlineConnect=0;targetShapes=umlLifeline;portConstraint=eastwest;newEdgeStyle={&quot;curved&quot;:0,&quot;rounded&quot;:0};" vertex="1" parent="1">
          <mxGeometry x="534.5" y="129" width="10" height="27" as="geometry" />
        </mxCell>
        <mxCell id="fQcYbc_jI2bmJIxMiMPl-41" value="getForm()" style="html=1;verticalAlign=bottom;endArrow=block;curved=0;rounded=0;" edge="1" parent="1">
          <mxGeometry width="80" relative="1" as="geometry">
            <mxPoint x="548" y="151" as="sourcePoint" />
            <mxPoint x="691" y="151" as="targetPoint" />
          </mxGeometry>
        </mxCell>
        <mxCell id="fQcYbc_jI2bmJIxMiMPl-42" value="submit()" style="html=1;verticalAlign=bottom;endArrow=block;curved=0;rounded=0;" edge="1" parent="1">
          <mxGeometry width="80" relative="1" as="geometry">
            <mxPoint x="714" y="417" as="sourcePoint" />
            <mxPoint x="848" y="417" as="targetPoint" />
          </mxGeometry>
        </mxCell>
        <mxCell id="fQcYbc_jI2bmJIxMiMPl-44" value="" style="endArrow=none;dashed=1;html=1;rounded=0;" edge="1" parent="1" source="fQcYbc_jI2bmJIxMiMPl-58" target="fQcYbc_jI2bmJIxMiMPl-43">
          <mxGeometry width="50" height="50" relative="1" as="geometry">
            <mxPoint x="865.91" y="897" as="sourcePoint" />
            <mxPoint x="866.32" y="117" as="targetPoint" />
          </mxGeometry>
        </mxCell>
        <mxCell id="fQcYbc_jI2bmJIxMiMPl-43" value="" style="html=1;points=[[0,0,0,0,5],[0,1,0,0,-5],[1,0,0,0,5],[1,1,0,0,-5]];perimeter=orthogonalPerimeter;outlineConnect=0;targetShapes=umlLifeline;portConstraint=eastwest;newEdgeStyle={&quot;curved&quot;:0,&quot;rounded&quot;:0};" vertex="1" parent="1">
          <mxGeometry x="861.5" y="405" width="10" height="103" as="geometry" />
        </mxCell>
        <mxCell id="fQcYbc_jI2bmJIxMiMPl-45" value="validateData()" style="html=1;verticalAlign=bottom;endArrow=block;curved=0;rounded=0;" edge="1" parent="1">
          <mxGeometry x="0.102" y="17" width="80" relative="1" as="geometry">
            <mxPoint x="876" y="426.29" as="sourcePoint" />
            <mxPoint x="883" y="474" as="targetPoint" />
            <Array as="points">
              <mxPoint x="929" y="426" />
              <mxPoint x="929" y="458" />
              <mxPoint x="929" y="474" />
            </Array>
            <mxPoint as="offset" />
          </mxGeometry>
        </mxCell>
        <mxCell id="fQcYbc_jI2bmJIxMiMPl-47" value="" style="endArrow=none;dashed=1;html=1;rounded=0;" edge="1" parent="1" target="fQcYbc_jI2bmJIxMiMPl-46">
          <mxGeometry width="50" height="50" relative="1" as="geometry">
            <mxPoint x="1377" y="903" as="sourcePoint" />
            <mxPoint x="1377.3200000000002" y="116" as="targetPoint" />
          </mxGeometry>
        </mxCell>
        <mxCell id="fQcYbc_jI2bmJIxMiMPl-46" value="" style="html=1;points=[[0,0,0,0,5],[0,1,0,0,-5],[1,0,0,0,5],[1,1,0,0,-5]];perimeter=orthogonalPerimeter;outlineConnect=0;targetShapes=umlLifeline;portConstraint=eastwest;newEdgeStyle={&quot;curved&quot;:0,&quot;rounded&quot;:0};" vertex="1" parent="1">
          <mxGeometry x="1372.5" y="610" width="10" height="51" as="geometry" />
        </mxCell>
        <mxCell id="fQcYbc_jI2bmJIxMiMPl-48" value="returnResponse()" style="html=1;verticalAlign=bottom;endArrow=open;dashed=1;endSize=8;curved=0;rounded=0;" edge="1" parent="1">
          <mxGeometry relative="1" as="geometry">
            <mxPoint x="1366" y="656.41" as="sourcePoint" />
            <mxPoint x="878" y="656" as="targetPoint" />
            <Array as="points">
              <mxPoint x="1325" y="656.41" />
            </Array>
          </mxGeometry>
        </mxCell>
        <mxCell id="fQcYbc_jI2bmJIxMiMPl-49" value="" style="endArrow=none;dashed=1;html=1;rounded=0;" edge="1" parent="1" source="fQcYbc_jI2bmJIxMiMPl-62" target="fQcYbc_jI2bmJIxMiMPl-11">
          <mxGeometry width="50" height="50" relative="1" as="geometry">
            <mxPoint x="1193.9099999999999" y="1149" as="sourcePoint" />
            <mxPoint x="1194.3200000000002" y="369" as="targetPoint" />
          </mxGeometry>
        </mxCell>
        <mxCell id="fQcYbc_jI2bmJIxMiMPl-11" value=": Pickup Details" style="html=1;whiteSpace=wrap;" vertex="1" parent="1">
          <mxGeometry x="1151" y="687" width="91" height="42" as="geometry" />
        </mxCell>
        <mxCell id="fQcYbc_jI2bmJIxMiMPl-55" value="" style="endArrow=none;dashed=1;html=1;rounded=0;" edge="1" parent="1" target="fQcYbc_jI2bmJIxMiMPl-54">
          <mxGeometry width="50" height="50" relative="1" as="geometry">
            <mxPoint x="1043" y="901" as="sourcePoint" />
            <mxPoint x="1043" y="323" as="targetPoint" />
          </mxGeometry>
        </mxCell>
        <mxCell id="fQcYbc_jI2bmJIxMiMPl-54" value="" style="html=1;points=[[0,0,0,0,5],[0,1,0,0,-5],[1,0,0,0,5],[1,1,0,0,-5]];perimeter=orthogonalPerimeter;outlineConnect=0;targetShapes=umlLifeline;portConstraint=eastwest;newEdgeStyle={&quot;curved&quot;:0,&quot;rounded&quot;:0};" vertex="1" parent="1">
          <mxGeometry x="1037" y="490" width="10" height="37" as="geometry" />
        </mxCell>
        <mxCell id="fQcYbc_jI2bmJIxMiMPl-56" value="displayMessage(&quot;Please fill all fields&quot;)" style="html=1;verticalAlign=bottom;endArrow=open;dashed=1;endSize=8;curved=0;rounded=0;" edge="1" parent="1">
          <mxGeometry relative="1" as="geometry">
            <mxPoint x="1032.5" y="517.41" as="sourcePoint" />
            <mxPoint x="416" y="517" as="targetPoint" />
            <Array as="points">
              <mxPoint x="991.5" y="517.41" />
            </Array>
          </mxGeometry>
        </mxCell>
        <mxCell id="fQcYbc_jI2bmJIxMiMPl-57" value="checkAvailability()" style="html=1;verticalAlign=bottom;endArrow=block;curved=0;rounded=0;" edge="1" parent="1">
          <mxGeometry width="80" relative="1" as="geometry">
            <mxPoint x="871.5" y="633" as="sourcePoint" />
            <mxPoint x="1372" y="633" as="targetPoint" />
          </mxGeometry>
        </mxCell>
        <mxCell id="fQcYbc_jI2bmJIxMiMPl-59" value="" style="endArrow=none;dashed=1;html=1;rounded=0;" edge="1" parent="1" target="fQcYbc_jI2bmJIxMiMPl-58">
          <mxGeometry width="50" height="50" relative="1" as="geometry">
            <mxPoint x="865.91" y="897" as="sourcePoint" />
            <mxPoint x="866" y="554" as="targetPoint" />
          </mxGeometry>
        </mxCell>
        <mxCell id="fQcYbc_jI2bmJIxMiMPl-58" value="" style="html=1;points=[[0,0,0,0,5],[0,1,0,0,-5],[1,0,0,0,5],[1,1,0,0,-5]];perimeter=orthogonalPerimeter;outlineConnect=0;targetShapes=umlLifeline;portConstraint=eastwest;newEdgeStyle={&quot;curved&quot;:0,&quot;rounded&quot;:0};" vertex="1" parent="1">
          <mxGeometry x="861.5" y="620" width="10" height="218" as="geometry" />
        </mxCell>
        <mxCell id="fQcYbc_jI2bmJIxMiMPl-60" value="Create" style="endArrow=open;endSize=12;dashed=1;html=1;rounded=0;" edge="1" parent="1">
          <mxGeometry width="160" relative="1" as="geometry">
            <mxPoint x="874" y="701" as="sourcePoint" />
            <mxPoint x="1141" y="698" as="targetPoint" />
          </mxGeometry>
        </mxCell>
        <mxCell id="fQcYbc_jI2bmJIxMiMPl-61" value="returnDetails()" style="html=1;verticalAlign=bottom;endArrow=open;dashed=1;endSize=8;curved=0;rounded=0;" edge="1" parent="1">
          <mxGeometry relative="1" as="geometry">
            <mxPoint x="1182" y="771" as="sourcePoint" />
            <mxPoint x="877" y="771" as="targetPoint" />
            <Array as="points">
              <mxPoint x="1141" y="771" />
            </Array>
          </mxGeometry>
        </mxCell>
        <mxCell id="fQcYbc_jI2bmJIxMiMPl-63" value="" style="endArrow=none;dashed=1;html=1;rounded=0;exitX=0.794;exitY=1;exitDx=0;exitDy=0;exitPerimeter=0;" edge="1" parent="1" source="fQcYbc_jI2bmJIxMiMPl-65" target="fQcYbc_jI2bmJIxMiMPl-62">
          <mxGeometry width="50" height="50" relative="1" as="geometry">
            <mxPoint x="1193.9099999999999" y="1149" as="sourcePoint" />
            <mxPoint x="1196" y="729" as="targetPoint" />
          </mxGeometry>
        </mxCell>
        <mxCell id="fQcYbc_jI2bmJIxMiMPl-62" value="" style="html=1;points=[[0,0,0,0,5],[0,1,0,0,-5],[1,0,0,0,5],[1,1,0,0,-5]];perimeter=orthogonalPerimeter;outlineConnect=0;targetShapes=umlLifeline;portConstraint=eastwest;newEdgeStyle={&quot;curved&quot;:0,&quot;rounded&quot;:0};" vertex="1" parent="1">
          <mxGeometry x="1191.5" y="737" width="10" height="46" as="geometry" />
        </mxCell>
        <mxCell id="fQcYbc_jI2bmJIxMiMPl-65" value="Alt" style="shape=umlFrame;whiteSpace=wrap;html=1;pointerEvents=0;" vertex="1" parent="1">
          <mxGeometry x="357" y="483" width="1055" height="420" as="geometry" />
        </mxCell>
        <mxCell id="fQcYbc_jI2bmJIxMiMPl-66" value="Alt" style="shape=umlFrame;whiteSpace=wrap;html=1;pointerEvents=0;" vertex="1" parent="1">
          <mxGeometry x="328" y="223" width="1116" height="709" as="geometry" />
        </mxCell>
        <mxCell id="fQcYbc_jI2bmJIxMiMPl-67" value="[Cancellation]" style="text;html=1;align=center;verticalAlign=middle;whiteSpace=wrap;rounded=0;" vertex="1" parent="1">
          <mxGeometry x="349" y="252" width="39" height="23" as="geometry" />
        </mxCell>
        <mxCell id="fQcYbc_jI2bmJIxMiMPl-68" value="[Form data missing]" style="text;html=1;align=center;verticalAlign=middle;whiteSpace=wrap;rounded=0;" vertex="1" parent="1">
          <mxGeometry x="353" y="532" width="57.5" height="12" as="geometry" />
        </mxCell>
        <mxCell id="fQcYbc_jI2bmJIxMiMPl-70" value="" style="html=1;points=[[0,0,0,0,5],[0,1,0,0,-5],[1,0,0,0,5],[1,1,0,0,-5]];perimeter=orthogonalPerimeter;outlineConnect=0;targetShapes=umlLifeline;portConstraint=eastwest;newEdgeStyle={&quot;curved&quot;:0,&quot;rounded&quot;:0};" vertex="1" parent="1">
          <mxGeometry x="1037" y="820" width="10" height="55" as="geometry" />
        </mxCell>
        <mxCell id="fQcYbc_jI2bmJIxMiMPl-73" value="" style="endArrow=none;dashed=1;html=1;rounded=0;entryX=1;entryY=0.282;entryDx=0;entryDy=0;entryPerimeter=0;" edge="1" parent="1" target="fQcYbc_jI2bmJIxMiMPl-65">
          <mxGeometry width="50" height="50" relative="1" as="geometry">
            <mxPoint x="356" y="601" as="sourcePoint" />
            <mxPoint x="410.5" y="568" as="targetPoint" />
          </mxGeometry>
        </mxCell>
        <mxCell id="fQcYbc_jI2bmJIxMiMPl-74" value="[Form data valid]" style="text;html=1;align=center;verticalAlign=middle;whiteSpace=wrap;rounded=0;" vertex="1" parent="1">
          <mxGeometry x="357" y="623" width="46" height="12" as="geometry" />
        </mxCell>
        <mxCell id="fQcYbc_jI2bmJIxMiMPl-76" value="displayPickupDetails()" style="html=1;verticalAlign=bottom;endArrow=open;dashed=1;endSize=8;curved=0;rounded=0;" edge="1" parent="1">
          <mxGeometry relative="1" as="geometry">
            <mxPoint x="1037" y="866" as="sourcePoint" />
            <mxPoint x="412" y="863" as="targetPoint" />
          </mxGeometry>
        </mxCell>
        <mxCell id="fQcYbc_jI2bmJIxMiMPl-77" value="" style="endArrow=none;dashed=1;html=1;rounded=0;exitX=0.003;exitY=0.181;exitDx=0;exitDy=0;exitPerimeter=0;entryX=1.001;entryY=0.184;entryDx=0;entryDy=0;entryPerimeter=0;" edge="1" parent="1" source="fQcYbc_jI2bmJIxMiMPl-66" target="fQcYbc_jI2bmJIxMiMPl-66">
          <mxGeometry width="50" height="50" relative="1" as="geometry">
            <mxPoint x="865" y="533" as="sourcePoint" />
            <mxPoint x="915" y="483" as="targetPoint" />
          </mxGeometry>
        </mxCell>
        <mxCell id="fQcYbc_jI2bmJIxMiMPl-78" value="[Normal&amp;nbsp;&lt;span style=&quot;background-color: transparent; color: light-dark(rgb(0, 0, 0), rgb(255, 255, 255));&quot;&gt;flow]&lt;/span&gt;" style="text;html=1;align=center;verticalAlign=middle;whiteSpace=wrap;rounded=0;" vertex="1" parent="1">
          <mxGeometry x="324" y="358" width="88" height="9" as="geometry" />
        </mxCell>
        <mxCell id="fQcYbc_jI2bmJIxMiMPl-83" value="missingData()" style="html=1;verticalAlign=bottom;endArrow=block;curved=0;rounded=0;" edge="1" parent="1">
          <mxGeometry width="80" relative="1" as="geometry">
            <mxPoint x="871.5" y="500" as="sourcePoint" />
            <mxPoint x="1037" y="500" as="targetPoint" />
          </mxGeometry>
        </mxCell>
        <mxCell id="fQcYbc_jI2bmJIxMiMPl-84" value="properDetails()" style="html=1;verticalAlign=bottom;endArrow=block;curved=0;rounded=0;" edge="1" parent="1">
          <mxGeometry width="80" relative="1" as="geometry">
            <mxPoint x="871.5" y="830" as="sourcePoint" />
            <mxPoint x="1037" y="830" as="targetPoint" />
          </mxGeometry>
        </mxCell>
      </root>
    </mxGraphModel>
  </diagram>
</mxfile>
